<svg id="simple-education_svg_icons_base" xmlns="http://www.w3.org/2000/svg" viewBox="0 0 100 100">
<g>
	<path class="st0" d="M97.9,98.1c-32,0-64,0-96,0c0-32,0-64,0-96c32,0,64,0,96,0C97.9,34.1,97.9,66.1,97.9,98.1z M97.7,93.9
		c0.1-1.2-0.7-2.2-1.7-3.1C82.9,77.7,69.9,64.6,56.8,51.6c-1.5-1.5-1.5-1.5,0-3C69.8,35.6,82.7,22.7,95.6,9.8
		c0.5-0.5,1.1-1.1,1.5-1.7c1-1.5,0.7-3.5-0.4-4.7c-1.2-1.2-3.2-1.5-4.8-0.5c-0.6,0.4-1.2,1-1.7,1.5C77.3,17.3,64.4,30.3,51.4,43.2
		c-1.5,1.5-1.5,1.5-3,0c-13-13-26-26-38.9-38.9C9.1,3.8,8.6,3.4,8.2,3C6.8,2,4.9,2.1,3.6,3.2C2.3,4.3,1.9,6,2.7,7.5
		c0.4,0.7,0.9,1.4,1.5,2c13,13,26.1,26.1,39.1,39.1c1.4,1.4,1.4,1.4,0,2.7c-13,13-25.9,25.9-38.8,38.9c-0.6,0.6-1.2,1.3-1.7,2
		c-0.9,1.5-0.7,3.2,0.6,4.4c1.2,1.3,3,1.6,4.5,0.6c0.7-0.5,1.4-1.1,2-1.7c13-12.9,25.9-25.9,38.9-38.8c1.3-1.3,1.3-1.3,2.6,0
		c13,13,26.1,26.1,39.1,39.1c0.6,0.6,1.2,1.2,2,1.6C94.9,98.6,97.6,96.8,97.7,93.9z"/>
	<path d="M97.7,93.9c0,2.9-2.8,4.7-5.3,3.4c-0.7-0.4-1.4-1-2-1.6c-13-13-26.1-26.1-39.1-39.1c-1.3-1.3-1.3-1.3-2.6,0
		c-13,13-25.9,25.9-38.9,38.8c-0.6,0.6-1.3,1.2-2,1.7c-1.5,0.9-3.3,0.7-4.5-0.6c-1.2-1.2-1.5-2.9-0.6-4.4c0.5-0.7,1.1-1.4,1.7-2
		c12.9-13,25.9-25.9,38.8-38.9c1.3-1.3,1.3-1.3,0-2.7c-13-13-26.1-26.1-39.1-39.1C3.6,8.9,3,8.2,2.7,7.5C1.9,6,2.3,4.3,3.6,3.2
		C4.9,2.1,6.8,2,8.2,3c0.5,0.4,0.9,0.8,1.3,1.2c13,13,26,26,38.9,38.9c1.5,1.5,1.5,1.5,3,0C64.4,30.3,77.3,17.3,90.2,4.4
		c0.5-0.5,1.1-1.1,1.7-1.5c1.5-1,3.6-0.7,4.8,0.5c1.2,1.2,1.4,3.2,0.4,4.7c-0.4,0.6-1,1.2-1.5,1.7C82.7,22.7,69.8,35.6,56.8,48.6
		c-1.5,1.5-1.5,1.5,0,3C69.9,64.6,82.9,77.7,96,90.7C96.9,91.7,97.7,92.6,97.7,93.9z"/>
</g>
</svg>
