<svg id="simple-education_svg_icons_base" xmlns="http://www.w3.org/2000/svg" viewBox="0 0 100 100">
<g>
	<path d="M97.7,93.9c0,2.9-2.8,4.7-5.3,3.4c-0.7-0.4-1.4-1-2-1.6c-13-13-26.1-26.1-39.1-39.1c-1.3-1.3-1.3-1.3-2.6,0
		c-13,13-25.9,25.9-38.9,38.8c-0.6,0.6-1.3,1.2-2,1.7c-1.5,0.9-3.3,0.7-4.5-0.6c-1.2-1.2-1.5-2.9-0.6-4.4c0.5-0.7,1.1-1.4,1.7-2
		c12.9-13,25.9-25.9,38.8-38.9c1.3-1.3,1.3-1.3,0-2.7c-13-13-26.1-26.1-39.1-39.1C3.6,8.9,3,8.2,2.7,7.5C1.9,6,2.3,4.3,3.6,3.2
		S6.8,2,8.2,3c0.5,0.4,0.9,0.8,1.3,1.2c13,13,26,26,38.9,38.9c1.5,1.5,1.5,1.5,3,0c13-12.8,25.9-25.8,38.8-38.7
		c0.5-0.5,1.1-1.1,1.7-1.5c1.5-1,3.6-0.7,4.8,0.5c1.2,1.2,1.4,3.2,0.4,4.7c-0.4,0.6-1,1.2-1.5,1.7C82.7,22.7,69.8,35.6,56.8,48.6
		c-1.5,1.5-1.5,1.5,0,3c13.1,13,26.1,26.1,39.2,39.1C96.9,91.7,97.7,92.6,97.7,93.9z"/>
</g>
</svg>
