<svg id="simple-education_exclamation-mark_base" xmlns="http://www.w3.org/2000/svg" viewBox="0 0 100 100">
<path d="M50,0C22.4,0,0,22.4,0,50s22.4,50,50,50s50-22.4,50-50S77.6,0,50,0z M53.1,78.2c-0.9,0.9-1.9,1.3-3.1,1.3s-2.2-0.4-3-1.2
	c-0.8-0.8-1.2-1.9-1.2-3.1c0-1.2,0.4-2.2,1.2-3.1c0.8-0.8,1.8-1.2,3.1-1.2c1.2,0,2.2,0.4,3.1,1.2c0.8,0.8,1.2,1.9,1.2,3.1
	C54.4,76.3,53.9,77.4,53.1,78.2z M54.9,34.8c-0.3,2.4-0.6,5.5-1.1,9.5c-0.4,3.4-0.8,6.5-1.1,9.4c-0.3,2.9-0.5,6.1-0.9,9.6
	c-0.1,1.1-0.4,1.9-0.7,2.3c-0.4,0.4-0.7,0.6-1.1,0.5c-0.4-0.1-0.8-0.4-1.1-0.9c-0.3-0.5-0.5-1.1-0.6-1.7c-0.3-3.3-0.6-6.4-0.9-9.5
	c-0.3-3.1-0.7-6.3-1.1-9.7c-0.5-3.8-0.9-7-1.1-9.4c-0.3-2.4-0.4-4-0.4-4.7c0-3.1,0.5-5.5,1.4-7.2c0.9-1.7,2.2-2.5,3.9-2.5
	s2.9,0.8,3.9,2.5c0.9,1.7,1.4,4.1,1.4,7.2C55.3,30.9,55.1,32.4,54.9,34.8z"/>
</svg>
