<svg id="simple-education_exclamation-mark_base" xmlns="http://www.w3.org/2000/svg" viewBox="0 0 100 100">
<g>
	<path d="M84.5,9.3H67.7C67.1,4.1,62.6,0,57.3,0H42.7c-5.4,0-9.8,4.1-10.5,9.3H15.5C9.8,9.3,5.1,14,5.1,19.7v1.4
		c0,1.4,1.1,2.5,2.5,2.5h6.8v66.2c0,5.6,4.5,10.1,10.1,10.1h51.1c5.6,0,10.1-4.5,10.1-10.1V23.7h6.8c1.4,0,2.5-1.1,2.5-2.5v-1.4
		C94.9,14,90.2,9.3,84.5,9.3z M42.7,3.8h14.5c3.3,0,6,2.3,6.6,5.4H36.1C36.8,6.2,39.5,3.8,42.7,3.8z M81.8,89.9
		c0,3.4-2.8,6.3-6.3,6.3H24.5c-3.4,0-6.3-2.8-6.3-6.3V23.7h63.6V89.9z M91.1,19.9h-5.5H14.4H8.9v-0.1c0-3.7,3-6.6,6.6-6.6h16.6h35.6
		h16.6c3.7,0,6.6,3,6.6,6.6V19.9z"/>
	<path d="M50,87.6c1.1,0,1.9-0.9,1.9-1.9V36c0-1.1-0.9-1.9-1.9-1.9c-1.1,0-1.9,0.9-1.9,1.9v49.7C48.1,86.7,48.9,87.6,50,87.6z"/>
	<path d="M65.9,87.9c1.1,0,1.9-0.9,1.9-1.9V36.4c0-1.1-0.9-1.9-1.9-1.9c-1.1,0-1.9,0.9-1.9,1.9V86C64,87.1,64.8,87.9,65.9,87.9z"/>
	<path d="M34.1,87.6c1.1,0,1.9-0.9,1.9-1.9V36c0-1.1-0.9-1.9-1.9-1.9c-1.1,0-1.9,0.9-1.9,1.9v49.7C32.2,86.7,33,87.6,34.1,87.6z"/>
</g>
</svg>
