<svg id="simple-education_hyphen-bar_base" xmlns="http://www.w3.org/2000/svg" viewBox="0 0 100 100">
<g>
	<path d="M30.7,45.3c-0.4,6.6,1.5,12.3,6.6,17.4l0,0c9.3,9.3,24.4,9.3,33.7,0L93,40.6c9.3-9.3,9.3-24.4,0-33.7l0,0
		c-9.3-9.3-24.4-9.3-33.7,0L37.3,29c-0.9,0.9-2.5,2.9-2.5,2.9c3.5-2,6.2-2.4,10-2.9l18-18c7.2-7.2,18.9-7.2,26.1,0l0,0
		c7.2,7.2,7.2,18.9,0,26.1L67.5,58.7c-7.2,7.2-18.9,7.2-26.1,0l0,0C36,53.3,35,46.6,37.5,40C36.1,40.6,34.2,41.3,30.7,45.3z"/>
	<path d="M69.3,54.7c0.4-6.6-1.5-12.3-6.6-17.4l0,0C53.4,28,38.3,28,29,37.3L7,59.4C-2.3,68.7-2.3,83.7,7,93l0,0
		c9.3,9.3,24.4,9.3,33.7,0L62.7,71c0.9-0.9,2.5-2.9,2.5-2.9c-3.5,2-6.2,2.4-10,2.9l-18,18c-7.2,7.2-18.9,7.2-26.1,0l0,0
		c-7.2-7.2-7.2-18.9,0-26.1l21.5-21.5c7.2-7.2,18.9-7.2,26.1,0l0,0C64,46.7,65,53.4,62.5,60C63.9,59.4,65.8,58.7,69.3,54.7z"/>
</g>
</svg>
