<svg id="simple-education_search-filter-slash_base" xmlns="http://www.w3.org/2000/svg" viewBox="0 0 100 100">
<g>
	<path d="M61.4,54.4l31.5-36.6c3.6-4.2,0.6-10.7-4.9-10.7H14.2l26.3,26.3"/>
	<g>
		<path d="M40.5,47.6l0,9.1v23c0,1.2,0.5,2.3,1.4,3L53.1,92c2.6,2.1,6.4,0.3,6.4-3V66.6L40.5,47.6z"/>
		<path d="M5.6,12.7c-0.2,1.7,0.2,3.6,1.5,5.1l33.4,38.8v-9.1L5.6,12.7z"/>
	</g>
</g>
<path d="M82.9,85.5c-0.6,0-1.3-0.2-1.8-0.7L7.6,11.2c-1-1-1-2.6,0-3.5c1-1,2.6-1,3.5,0l73.5,73.5c1,1,1,2.6,0,3.5
	C84.2,85.2,83.5,85.5,82.9,85.5z"/>
</svg>
