<svg id="simple-education_hyphen-bar_base" xmlns="http://www.w3.org/2000/svg" viewBox="0 0 100 100">
<rect id="Border" x="9.3" y="94.1" width="81.4" height="5.9"/>
<path d="M83,73.5l-10.6-30c0.5,0,1,0.1,1.5,0.1c3.9,0,7.2-1.4,9.1-3.9c1.8-2.3,2.2-5.3,1.3-8.8c-1.2-4.4-2.6-7.8-4.2-11.3
	c-2-4.7-4.2-9.5-5.8-17.3l-0.3-1.6l-0.3,1.6c-1.6,7.8-3.8,12.6-5.8,17.3c-0.7,1.6-1.4,3.2-2,4.8L63,16.6c-0.9-2.8-1.7-5.1-2.3-6.8
	c-0.6-1.7-1.3-3.3-2.2-4.8c-0.9-1.4-2.1-2.7-3.5-3.6C53.6,0.5,51.8,0,49.6,0c-2.1,0-3.9,0.5-5.5,1.4c-1.4,0.9-2.6,2.2-3.5,3.7
	c-0.9,1.5-1.7,3.4-2.5,5.7c-0.8,2.3-1.4,4.3-2,5.9L16.5,73.9c-0.8,2.3-1.4,4.1-1.7,5.4s-0.5,2.5-0.5,3.7c0,2.1,0.7,4,2.2,5.6
	c1.5,1.7,3.2,2.5,5.2,2.5c2.3,0,4-0.8,5-2.3c1.1-1.5,2.3-4.5,3.7-8.9l3.7-11.3h31.1l3.7,11.1c0.5,1.3,1.1,2.9,1.7,4.6
	c0.7,1.8,1.3,3.1,1.9,4c0.6,0.8,1.3,1.5,2.2,2c0.8,0.5,1.9,0.8,3.1,0.8c2.1,0,3.9-0.9,5.4-2.6s2.2-3.6,2.2-5.6
	C85.4,81,84.6,77.8,83,73.5z M38.2,55.2l11.3-36.4L61,55.2H38.2z M68.4,19.8c1.9-4.4,3.9-8.9,5.5-15.8c1.6,6.9,3.6,11.5,5.5,15.8
	c1.5,3.5,3,6.9,4.2,11.2l0,0c0.9,3.2,0.5,6.1-1.1,8.2c-1.8,2.3-4.9,3.7-8.5,3.7c-3.6,0-6.8-1.4-8.5-3.7c-1.6-2.1-2-5-1.1-8.2
	C65.4,26.6,66.9,23.3,68.4,19.8z"/>
</svg>
