<svg id="simple-education_view-eye-cancel_base" xmlns="http://www.w3.org/2000/svg" viewBox="0 0 100 100">
<g>
	<path d="M97.8,50C91.4,29.8,72.4,15.1,50,15.1c-8.7,0-16.8,2.2-23.9,6.1l11,11C40.8,29.6,45.2,28,50,28c12.1,0,22,9.8,22,22
		c0,4.8-1.6,9.2-4.2,12.9L79.9,75C88.3,68.8,94.6,60.1,97.8,50z"/>
	<path d="M50,72c-12.1,0-22-9.8-22-22c0-4.8,1.6-9.2,4.2-12.9L20.1,25C11.7,31.2,5.4,39.9,2.2,50C8.6,70.2,27.6,84.9,50,84.9
		c8.7,0,16.8-2.2,23.9-6.1l-11-11C59.2,70.4,54.8,72,50,72z"/>
	<path d="M65.4,50c0-8.5-6.9-15.4-15.4-15.4c-3,0-5.8,0.9-8.1,2.3l21.2,21.2C64.5,55.8,65.4,53,65.4,50z"/>
	<path d="M50,65.4c3,0,5.8-0.9,8.1-2.3L36.9,41.9c-1.5,2.4-2.3,5.1-2.3,8.1C34.6,58.5,41.5,65.4,50,65.4z"/>
</g>
<path d="M85.6,86.6c-0.3,0-0.5-0.1-0.7-0.3L13.7,15.1c-0.4-0.4-0.4-1,0-1.4s1-0.4,1.4,0l71.2,71.2c0.4,0.4,0.4,1,0,1.4
	C86.1,86.5,85.9,86.6,85.6,86.6z"/>
</svg>
